<?xml version="1.0" encoding="UTF-8"?>
<svg xmlns="http://www.w3.org/2000/svg" xmlns:xlink="http://www.w3.org/1999/xlink" width="50px" height="50px" viewBox="0 0 50 50" version="1.1">
<g id="surface1">
<path style=" stroke:none;fill-rule:nonzero;fill:rgb(94.901961%,92.941176%,85.490196%);fill-opacity:1;" d="M 5.539062 46.109375 C 5.289062 45.347656 4.609375 44.753906 3.851562 44.585938 L 3.851562 24.957031 L 25 3.804688 L 46.148438 24.957031 L 46.148438 44.5 C 45.390625 44.753906 44.710938 45.347656 44.460938 46.109375 C 44.460938 44.246094 42.9375 42.726562 41.074219 42.726562 C 39.210938 42.726562 37.6875 44.246094 37.6875 46.109375 C 36.757812 46.109375 36 46.867188 36 47.800781 C 36 48.730469 36.757812 49.492188 37.6875 49.492188 L 32.613281 49.492188 L 32.613281 46.109375 L 17.386719 46.109375 L 17.386719 49.492188 L 12.3125 49.492188 C 13.242188 49.492188 14 48.730469 14 47.800781 C 14 46.867188 13.242188 46.109375 12.3125 46.109375 C 12.3125 44.246094 10.789062 42.726562 8.925781 42.726562 C 7.0625 42.726562 5.539062 44.246094 5.539062 46.109375 Z M 5.539062 46.109375 "/>
<path style=" stroke:none;fill-rule:nonzero;fill:rgb(94.901961%,92.941176%,85.490196%);fill-opacity:1;" d="M 32.613281 46.109375 L 32.613281 49.492188 L 17.386719 49.492188 L 17.386719 46.109375 Z M 32.613281 46.109375 "/>
<path style=" stroke:none;fill-rule:nonzero;fill:rgb(31.372549%,86.666667%,55.686275%);fill-opacity:1;" d="M 44.035156 49.492188 L 46.996094 49.492188 C 48.4375 49.492188 49.535156 48.390625 49.535156 46.953125 C 49.535156 45.515625 48.4375 44.414062 46.996094 44.414062 C 46.65625 44.414062 46.40625 44.414062 46.148438 44.585938 C 45.390625 44.839844 44.710938 45.429688 44.460938 46.109375 C 44.460938 44.25 42.9375 42.726562 41.074219 42.726562 C 39.210938 42.726562 37.691406 44.25 37.691406 46.109375 C 36.757812 46.109375 36 46.867188 36 47.800781 C 36 48.730469 36.757812 49.492188 37.691406 49.492188 Z M 12.3125 46.109375 C 13.242188 46.109375 14 46.867188 14 47.800781 C 14 48.730469 13.242188 49.492188 12.3125 49.492188 L 3.003906 49.492188 C 1.5625 49.492188 0.464844 48.390625 0.464844 46.953125 C 0.464844 45.515625 1.5625 44.414062 3.003906 44.414062 C 3.34375 44.414062 3.59375 44.414062 3.851562 44.585938 C 4.609375 44.839844 5.289062 45.429688 5.539062 46.109375 C 5.539062 44.25 7.0625 42.726562 8.925781 42.726562 C 10.789062 42.726562 12.3125 44.246094 12.3125 46.109375 Z M 12.3125 46.109375 "/>
<path style=" stroke:none;fill-rule:nonzero;fill:rgb(100%,81.568627%,63.137255%);fill-opacity:1;" d="M 29.230469 37.648438 L 29.230469 46.109375 L 20.769531 46.109375 L 20.769531 29.1875 L 29.230469 29.1875 Z M 29.230469 37.648438 "/>
<path style=" stroke:none;fill-rule:nonzero;fill:rgb(50.196078%,83.921569%,98.039216%);fill-opacity:1;" d="M 8.925781 39.421875 L 15.695312 39.421875 L 15.695312 29.1875 L 8.925781 29.1875 Z M 34.304688 39.421875 L 41.074219 39.421875 L 41.074219 29.1875 L 34.304688 29.1875 Z M 25 13.960938 C 26.4375 13.960938 27.539062 15.058594 27.539062 16.5 C 27.539062 17.9375 26.4375 19.035156 25 19.035156 C 23.5625 19.035156 22.460938 17.9375 22.460938 16.5 C 22.460938 15.058594 23.5625 13.960938 25 13.960938 Z M 25 13.960938 "/>
<path style=" stroke:none;fill-rule:nonzero;fill:rgb(100%,45.490196%,45.490196%);fill-opacity:1;" d="M 21.617188 7.191406 L 0.464844 28.34375 L 0.464844 7.191406 L 10.617188 7.191406 L 10.617188 3.804688 L 8.925781 3.804688 L 8.925781 0.421875 L 15.695312 0.421875 L 15.695312 3.804688 L 14 3.804688 L 14 7.191406 Z M 49.535156 7.191406 L 49.535156 28.34375 L 28.382812 7.191406 Z M 49.535156 7.191406 "/>
<path style=" stroke:none;fill-rule:nonzero;fill:rgb(31.764706%,33.72549%,37.254902%);fill-opacity:1;" d="M 46.996094 49.914062 C 46.742188 49.914062 46.574219 49.746094 46.574219 49.492188 C 46.574219 49.238281 46.742188 49.070312 46.996094 49.070312 C 48.179688 49.070312 49.109375 48.140625 49.109375 46.953125 C 49.109375 45.769531 48.179688 44.839844 46.996094 44.839844 C 46.742188 44.839844 46.574219 44.839844 46.320312 44.921875 L 46.234375 44.921875 C 45.558594 45.09375 45.050781 45.601562 44.882812 46.195312 C 44.796875 46.359375 44.625 46.53125 44.375 46.445312 C 44.203125 46.445312 44.035156 46.195312 44.035156 46.023438 C 44.035156 44.414062 42.679688 43.0625 41.074219 43.0625 C 39.46875 43.0625 38.113281 44.414062 38.113281 46.023438 C 38.113281 46.277344 37.945312 46.445312 37.6875 46.445312 C 37.015625 46.445312 36.421875 47.039062 36.421875 47.714844 C 36.421875 48.390625 37.015625 48.984375 37.6875 48.984375 L 41.074219 48.984375 C 41.328125 48.984375 41.5 49.15625 41.5 49.40625 C 41.5 49.664062 41.328125 49.828125 41.074219 49.828125 L 20.769531 49.828125 C 20.515625 49.828125 20.347656 49.664062 20.347656 49.40625 C 20.347656 49.15625 20.515625 48.984375 20.769531 48.984375 L 36 48.984375 C 35.742188 48.648438 35.578125 48.222656 35.578125 47.714844 C 35.578125 46.703125 36.335938 45.855469 37.265625 45.601562 C 37.4375 43.65625 39.046875 42.21875 41.074219 42.21875 C 42.765625 42.21875 44.203125 43.316406 44.710938 44.839844 C 44.96875 44.5 45.390625 44.332031 45.726562 44.164062 L 45.726562 30.03125 C 45.726562 29.78125 45.898438 29.609375 46.148438 29.609375 C 46.40625 29.609375 46.574219 29.78125 46.574219 30.03125 L 46.574219 43.992188 C 46.742188 43.992188 46.828125 43.992188 46.996094 43.992188 C 48.601562 43.992188 49.957031 45.347656 49.957031 46.953125 C 49.957031 48.5625 48.601562 49.914062 46.996094 49.914062 Z M 17.386719 49.914062 C 17.132812 49.914062 16.960938 49.746094 16.960938 49.492188 L 16.960938 46.109375 C 16.960938 45.855469 17.132812 45.6875 17.386719 45.6875 L 20.347656 45.6875 L 20.347656 29.1875 C 20.347656 28.933594 20.515625 28.765625 20.769531 28.765625 L 29.230469 28.765625 C 29.484375 28.765625 29.652344 28.933594 29.652344 29.1875 L 29.652344 45.6875 L 32.617188 45.6875 C 32.867188 45.6875 33.039062 45.855469 33.039062 46.109375 C 33.039062 46.359375 32.867188 46.53125 32.617188 46.53125 L 17.808594 46.53125 L 17.808594 49.492188 C 17.808594 49.746094 17.640625 49.914062 17.386719 49.914062 Z M 21.195312 45.6875 L 28.804688 45.6875 L 28.804688 38.070312 L 27.539062 38.070312 C 27.285156 38.070312 27.117188 37.902344 27.117188 37.648438 C 27.117188 37.394531 27.285156 37.226562 27.539062 37.226562 L 28.804688 37.226562 L 28.804688 29.609375 L 21.195312 29.609375 Z M 12.3125 49.914062 C 12.054688 49.914062 11.886719 49.746094 11.886719 49.492188 C 11.886719 49.238281 12.054688 49.070312 12.3125 49.070312 C 12.984375 49.070312 13.578125 48.476562 13.578125 47.800781 C 13.578125 47.125 12.984375 46.53125 12.3125 46.53125 C 12.054688 46.53125 11.886719 46.359375 11.886719 46.109375 C 11.886719 44.5 10.53125 43.148438 8.925781 43.148438 C 7.320312 43.148438 5.964844 44.5 5.964844 46.109375 C 5.964844 46.277344 5.796875 46.445312 5.625 46.53125 C 5.457031 46.53125 5.203125 46.445312 5.117188 46.277344 C 4.867188 45.6875 4.359375 45.179688 3.765625 45.007812 C 3.765625 45.007812 3.765625 45.007812 3.679688 45.007812 C 3.425781 44.921875 3.257812 44.921875 3.003906 44.921875 C 1.820312 44.921875 0.890625 45.855469 0.890625 47.039062 C 0.890625 48.222656 1.820312 49.15625 3.003906 49.15625 C 3.257812 49.15625 3.425781 49.324219 3.425781 49.578125 C 3.425781 49.828125 3.257812 50 3.003906 50 C 1.398438 50 0.0429688 48.648438 0.0429688 47.039062 C 0.0429688 45.429688 1.398438 44.078125 3.003906 44.078125 C 3.171875 44.078125 3.257812 44.078125 3.425781 44.078125 L 3.425781 30.03125 C 3.425781 29.78125 3.59375 29.609375 3.851562 29.609375 C 4.101562 29.609375 4.273438 29.78125 4.273438 30.03125 L 4.273438 44.246094 C 4.695312 44.414062 5.03125 44.671875 5.289062 44.921875 C 5.796875 43.398438 7.234375 42.300781 8.925781 42.300781 C 10.871094 42.300781 12.476562 43.824219 12.734375 45.6875 C 13.75 45.855469 14.425781 46.703125 14.425781 47.800781 C 14.421875 48.984375 13.492188 49.914062 12.3125 49.914062 Z M 42.765625 39.765625 L 32.613281 39.765625 C 32.359375 39.765625 32.191406 39.59375 32.191406 39.339844 C 32.191406 39.085938 32.359375 38.917969 32.613281 38.917969 L 33.882812 38.917969 L 33.882812 29.1875 C 33.882812 28.933594 34.054688 28.765625 34.304688 28.765625 L 41.074219 28.765625 C 41.328125 28.765625 41.5 28.933594 41.5 29.1875 L 41.5 38.917969 L 42.765625 38.917969 C 43.019531 38.917969 43.1875 39.085938 43.1875 39.339844 C 43.1875 39.59375 43.019531 39.765625 42.765625 39.765625 Z M 34.726562 38.917969 L 40.652344 38.917969 L 40.652344 34.6875 L 34.726562 34.6875 Z M 34.726562 33.84375 L 40.652344 33.84375 L 40.652344 29.609375 L 34.726562 29.609375 Z M 17.386719 39.765625 L 7.234375 39.765625 C 6.980469 39.765625 6.8125 39.59375 6.8125 39.339844 C 6.8125 39.085938 6.980469 38.917969 7.234375 38.917969 L 8.5 38.917969 L 8.5 29.1875 C 8.5 28.933594 8.671875 28.765625 8.925781 28.765625 L 15.695312 28.765625 C 15.945312 28.765625 16.117188 28.933594 16.117188 29.1875 L 16.117188 38.917969 L 17.386719 38.917969 C 17.640625 38.917969 17.808594 39.085938 17.808594 39.339844 C 17.808594 39.59375 17.640625 39.765625 17.386719 39.765625 Z M 9.347656 38.917969 L 15.273438 38.917969 L 15.273438 34.6875 L 9.347656 34.6875 Z M 9.347656 33.84375 L 15.273438 33.84375 L 15.273438 29.609375 L 9.347656 29.609375 Z M 0.464844 28.765625 C 0.382812 28.765625 0.382812 28.765625 0.296875 28.765625 C 0.125 28.679688 0.0429688 28.511719 0.0429688 28.34375 L 0.0429688 7.191406 C 0.0429688 7.109375 0.125 6.9375 0.125 6.851562 C 0.125 6.765625 0.296875 6.765625 0.464844 6.765625 L 10.195312 6.765625 L 10.195312 4.230469 L 8.925781 4.230469 C 8.671875 4.230469 8.5 4.0625 8.5 3.804688 L 8.5 0.421875 C 8.5 0.171875 8.671875 0 8.925781 0 L 15.695312 0 C 15.945312 0 16.117188 0.171875 16.117188 0.421875 L 16.117188 3.804688 C 16.117188 4.0625 15.945312 4.230469 15.695312 4.230469 L 14.421875 4.230469 L 14.421875 6.765625 L 16.539062 6.765625 C 16.792969 6.765625 16.960938 6.9375 16.960938 7.191406 C 16.960938 7.445312 16.792969 7.617188 16.539062 7.617188 L 14 7.617188 C 13.75 7.617188 13.578125 7.445312 13.578125 7.191406 L 13.578125 3.804688 C 13.578125 3.554688 13.75 3.382812 14 3.382812 L 15.273438 3.382812 L 15.273438 0.84375 L 9.347656 0.84375 L 9.347656 3.382812 L 10.617188 3.382812 C 10.871094 3.382812 11.039062 3.554688 11.039062 3.804688 L 11.039062 7.191406 C 11.039062 7.445312 10.871094 7.613281 10.617188 7.613281 L 0.890625 7.613281 L 0.890625 27.328125 L 24.664062 3.554688 C 24.746094 3.46875 24.914062 3.46875 25 3.46875 C 25.171875 3.46875 25.253906 3.46875 25.335938 3.554688 L 49.109375 27.328125 L 49.109375 7.613281 L 33.460938 7.613281 C 33.207031 7.613281 33.039062 7.445312 33.039062 7.191406 C 33.039062 6.9375 33.207031 6.765625 33.460938 6.765625 L 49.535156 6.765625 C 49.789062 6.765625 49.957031 6.9375 49.957031 7.191406 L 49.957031 28.34375 C 49.957031 28.511719 49.875 28.679688 49.703125 28.765625 C 49.535156 28.851562 49.367188 28.765625 49.28125 28.679688 L 25.085938 4.484375 L 0.890625 28.679688 C 0.71875 28.679688 0.550781 28.765625 0.464844 28.765625 Z M 25 19.460938 C 23.390625 19.460938 22.039062 18.105469 22.039062 16.5 C 22.039062 14.890625 23.390625 13.539062 25 13.539062 C 26.609375 13.539062 27.960938 14.890625 27.960938 16.5 C 27.960938 18.105469 26.609375 19.460938 25 19.460938 Z M 25 14.382812 C 23.816406 14.382812 22.882812 15.3125 22.882812 16.5 C 22.882812 17.679688 23.816406 18.613281 25 18.613281 C 26.183594 18.613281 27.117188 17.679688 27.117188 16.5 C 27.117188 15.3125 26.183594 14.382812 25 14.382812 Z M 25 14.382812 "/>
</g>
</svg>
