<?xml version="1.0" standalone="no"?>
<!DOCTYPE svg PUBLIC "-//W3C//DTD SVG 20010904//EN" "http://www.w3.org/TR/2001/REC-SVG-20010904/DTD/svg10.dtd">
<svg version="1.0" xmlns="http://www.w3.org/2000/svg" width="100.000000pt" height="100.000000pt" viewBox="0 0 100.000000 100.000000" preserveAspectRatio="xMidYMid meet">
  <g transform="translate(0.000000,100.000000) scale(0.100000,-0.100000)" fill="#000000" stroke="none">
    <path d="M490 730 c0 -18 -7 -20 -54 -20 -51 0 -54 -2 -67 -32 -7 -18 -24 -43
-38 -56 -19 -17 -22 -25 -13 -34 7 -7 12 -38 12 -69 0 -51 -2 -57 -19 -52 -11
3 -26 -4 -37 -15 -11 -11 -35 -29 -54 -39 -67 -38 -48 -84 34 -81 l51 1 -55 6
c-47 5 -55 9 -58 28 -2 16 6 26 35 39 21 10 45 27 54 38 10 12 22 17 32 13 14
-5 17 -22 17 -96 l0 -90 -27 -4 c-16 -2 89 -4 232 -4 143 -1 252 1 243 4 -15
4 -18 16 -18 73 0 51 4 69 15 74 25 9 17 24 -27 56 l-41 30 35 0 c37 0 68 24
68 52 0 18 -70 78 -90 78 -7 0 -21 11 -32 25 -24 31 -54 32 -84 4 l-23 -22
-17 37 c-10 20 -24 36 -31 36 -7 0 -13 9 -13 20 0 11 -7 20 -15 20 -8 0 -15
-9 -15 -20z m17 -42 c-2 -13 -4 -5 -4 17 -1 22 1 32 4 23 2 -10 2 -28 0 -40z
m-17 -13 c0 -8 7 -15 15 -15 8 0 15 7 15 15 0 26 16 16 33 -20 l17 -35 -105 0
-105 0 17 35 c16 33 20 35 65 35 36 0 48 -4 48 -15z m188 -17 c7 -7 12 -20 12
-29 0 -13 6 -16 21 -12 13 4 27 0 33 -8 6 -8 20 -19 31 -25 24 -14 31 -40 15
-59 -18 -22 -87 -18 -127 6 -18 12 -40 18 -48 15 -18 -6 -21 24 -4 41 8 8 7
16 -2 31 -10 17 -10 23 0 36 16 19 52 21 69 4z m-78 -58 c0 -6 -52 -10 -135
-10 -83 0 -135 4 -135 10 0 6 52 10 135 10 83 0 135 -4 135 -10z m-10 -43 c0
-17 -18 -36 -65 -71 -67 -49 -76 -62 -50 -72 11 -5 15 -23 15 -75 0 -67 -1
-69 -25 -69 -23 0 -25 4 -25 45 0 41 -2 45 -25 45 -23 0 -25 -4 -25 -46 0 -41
-2 -45 -22 -42 -23 3 -23 6 -26 156 l-3 152 126 0 c124 0 125 0 125 -23z m118
-76 c34 -24 60 -46 58 -49 -3 -2 -22 9 -43 25 -21 16 -52 39 -68 50 l-31 22
-68 -50 c-37 -28 -70 -49 -72 -46 -8 8 140 106 151 99 6 -4 39 -27 73 -51z
m-28 -10 l25 -21 -30 -1 c-22 -2 -19 -4 15 -8 45 -6 45 -6 48 -48 3 -41 2 -43
-25 -44 l-28 -2 28 -4 c22 -4 27 -9 27 -34 0 -27 -3 -29 -35 -29 -33 0 -35 2
-35 35 0 35 0 35 -45 35 -45 0 -45 0 -45 -35 0 -33 -2 -35 -35 -35 -32 0 -35
2 -35 30 0 26 4 30 28 31 l27 2 -28 4 c-26 4 -28 7 -25 46 3 42 3 42 48 48 39
4 41 6 16 10 l-30 4 40 26 c41 28 47 27 94 -10z m-250 -156 c0 -24 -5 -35 -15
-35 -10 0 -15 11 -15 35 0 24 5 35 15 35 10 0 15 -11 15 -35z" />
    <path d="M390 535 c0 -20 5 -25 25 -25 20 0 25 5 25 25 0 20 -5 25 -25 25 -20
0 -25 -5 -25 -25z m40 0 c0 -8 -7 -15 -15 -15 -8 0 -15 7 -15 15 0 8 7 15 15
15 8 0 15 -7 15 -15z" />
    <path d="M480 535 c0 -20 5 -25 25 -25 20 0 25 5 25 25 0 20 -5 25 -25 25 -20
0 -25 -5 -25 -25z m40 0 c0 -8 -7 -15 -15 -15 -8 0 -15 7 -15 15 0 8 7 15 15
15 8 0 15 -7 15 -15z" />
    <path d="M390 445 c0 -20 5 -25 25 -25 20 0 25 5 25 25 0 20 -5 25 -25 25 -20
0 -25 -5 -25 -25z m40 0 c0 -8 -7 -15 -15 -15 -8 0 -15 7 -15 15 0 8 7 15 15
15 8 0 15 -7 15 -15z" />
    <path d="M618 443 c7 -3 16 -2 19 1 4 3 -2 6 -13 5 -11 0 -14 -3 -6 -6z" />
    <path d="M530 395 c0 -20 5 -25 25 -25 20 0 25 5 25 25 0 20 -5 25 -25 25 -20
0 -25 -5 -25 -25z m40 0 c0 -8 -7 -15 -15 -15 -8 0 -15 7 -15 15 0 8 7 15 15
15 8 0 15 -7 15 -15z" />
    <path d="M600 395 c0 -20 5 -25 25 -25 20 0 25 5 25 25 0 20 -5 25 -25 25 -20
0 -25 -5 -25 -25z m40 0 c0 -8 -7 -15 -15 -15 -8 0 -15 7 -15 15 0 8 7 15 15
15 8 0 15 -7 15 -15z" />
    <path d="M670 395 c0 -20 5 -25 25 -25 20 0 25 5 25 25 0 20 -5 25 -25 25 -20
0 -25 -5 -25 -25z m40 0 c0 -8 -7 -15 -15 -15 -8 0 -15 7 -15 15 0 8 7 15 15
15 8 0 15 -7 15 -15z" />
  </g>
</svg>